<?xml version="1.0" standalone="no"?>
<!DOCTYPE svg PUBLIC "-//W3C//DTD SVG 20010904//EN"
 "http://www.w3.org/TR/2001/REC-SVG-20010904/DTD/svg10.dtd">
<svg version="1.0" xmlns="http://www.w3.org/2000/svg"
 width="200.000000pt" height="200.000000pt" viewBox="0 0 200.000000 200.000000"
 preserveAspectRatio="xMidYMid meet">

<g transform="translate(0.000000,200.000000) scale(0.100000,-0.100000)"
fill="#000000" stroke="none">
<path d="M0 1000 l0 -1000 1000 0 1000 0 0 1000 0 1000 -1000 0 -1000 0 0
-1000z m1448 447 c346 -346 432 -438 432 -458 0 -21 -85 -111 -430 -455 -373
-373 -434 -429 -462 -432 -31 -2 -57 21 -462 427 -385 385 -429 433 -429 461
0 29 44 76 429 461 374 374 433 429 459 429 26 0 85 -55 463 -433z"/>
<path d="M867 1618 c-15 -12 -147 -328 -147 -354 0 -14 163 -77 187 -72 10 2
28 24 41 51 33 72 48 61 100 -71 24 -62 42 -115 40 -117 -2 -2 -89 19 -193 46
-105 28 -201 53 -213 56 -32 8 -254 -105 -250 -127 2 -8 21 -21 43 -28 22 -7
59 -19 81 -27 l42 -16 -59 -130 c-33 -71 -59 -139 -59 -150 0 -23 3 -23 157
29 l108 37 26 67 c14 37 28 70 30 73 6 5 453 -144 579 -193 41 -16 81 -27 87
-25 29 11 23 27 -268 732 -48 118 -94 218 -101 223 -21 13 -212 10 -231 -4z
m-192 -549 c89 -33 63 -64 -31 -35 -55 17 -70 29 -59 46 9 15 28 12 90 -11z
m183 -63 c48 -16 65 -37 43 -50 -10 -6 -112 22 -125 34 -12 12 1 43 17 37 6
-2 36 -12 65 -21z m190 -70 c47 -16 65 -36 44 -50 -10 -6 -113 22 -126 34 -12
12 2 43 17 37 6 -2 36 -12 65 -21z m178 -62 c60 -20 72 -30 56 -46 -18 -18
-132 19 -132 44 0 22 13 23 76 2z"/>
</g>
</svg>
